<svg width="164" height="166" viewBox="0 0 164 166" fill="none" xmlns="http://www.w3.org/2000/svg">
<circle cx="137.865" cy="25.5133" r="25.5133" fill="#CCFF0A"/>
<path d="M0 64.1346V18.6536C0 17.1307 1.25444 15.8819 2.77724 15.8672C106.77 14.8628 145.339 110.631 152.229 161.93C152.452 163.592 151.143 165.018 149.466 165.018H98.3082C96.7569 165.018 95.4994 163.76 95.4994 162.209V69.7522C95.4994 68.2009 94.2418 66.9434 92.6906 66.9434H2.80881C1.25754 66.9434 0 65.6858 0 64.1346Z" fill="#CCFF0A"/>
<path d="M0.232422 157.177V114.924C0.232422 113.147 2.37686 112.253 3.63962 113.503L44.2928 153.756C45.5624 155.013 44.6722 157.177 42.8856 157.177H0.232422Z" fill="#CCFF0A"/>
<path d="M64.2319 133.633L24.0128 93.4142C22.7529 92.1543 23.6452 90 25.4271 90H61.6461C64.9598 90 67.6461 92.6863 67.6461 96V132.219C67.6461 134.001 65.4918 134.893 64.2319 133.633Z" fill="#CCFF0A"/>
</svg>
